<svg xmlns="http://www.w3.org/2000/svg" width="14.971" height="14.971" viewBox="0 0 14.971 14.971">
  <g id="Group_3903" data-name="Group 3903" transform="translate(-11.229 -10.229)">
    <path id="Path_3618" data-name="Path 3618" d="M18.486,11a7.486,7.486,0,1,0,7.486,7.486A7.494,7.494,0,0,0,18.486,11Z" transform="translate(0.229 -0.771)" fill="#0474c0"/>
    <path id="Path_3620" data-name="Path 3620" d="M21.2,18.477H14.864a.864.864,0,0,1,0-1.727H21.2a.864.864,0,0,1,0,1.727Z" transform="translate(0.684 0.101)" fill="#fff"/>
    <path id="Path_3859" data-name="Path 3859" d="M7.2,1.727H.864A.864.864,0,0,1,.864,0H7.2a.864.864,0,0,1,0,1.727Z" transform="translate(17.851 21.745) rotate(-90)" fill="#fff"/>
  </g>
</svg>
