<svg xmlns="http://www.w3.org/2000/svg" width="24.058" height="24.058" viewBox="0 0 24.058 24.058">
  <g id="call" transform="translate(0 6.923) rotate(-22)">
    <g id="Group_3623" data-name="Group 3623">
      <path id="Path_3533" data-name="Path 3533" d="M1.483,12.13a10.492,10.492,0,0,0,3.3-.525,1.506,1.506,0,0,1,1.465.309l2.078,1.569a11.483,11.483,0,0,0,5.163-5.162L11.961,6.3a1.494,1.494,0,0,1-.367-1.513,10.509,10.509,0,0,0,.527-3.3A1.485,1.485,0,0,1,13.6,0H17A1.485,1.485,0,0,1,18.48,1.483a17.017,17.017,0,0,1-17,17A1.485,1.485,0,0,1,0,17V13.613A1.485,1.485,0,0,1,1.483,12.13Z" fill="#fff"/>
    </g>
  </g>
</svg>
