<svg id="phone-book" xmlns="http://www.w3.org/2000/svg" width="14.63" height="18.093" viewBox="0 0 14.63 18.093">
  <path id="Path_3547" data-name="Path 3547" d="M63.1,0H50.661a.53.53,0,0,0-.53.53V2.862h-.6a.53.53,0,1,0,0,1.06h.6V5.69h-.6a.53.53,0,1,0,0,1.06h.6V8.517h-.6a.53.53,0,1,0,0,1.06h.6v1.767h-.6a.53.53,0,1,0,0,1.06h.6v1.767h-.6a.53.53,0,1,0,0,1.06h.6v2.332a.53.53,0,0,0,.53.53H63.1a.53.53,0,0,0,.53-.53V.53A.53.53,0,0,0,63.1,0Zm-.53,17.033H51.191v-1.8h.6a.53.53,0,0,0,0-1.06h-.6V12.4h.6a.53.53,0,0,0,0-1.06h-.6V9.577h.6a.53.53,0,0,0,0-1.06h-.6V6.75h.6a.53.53,0,0,0,0-1.06h-.6V3.923h.6a.53.53,0,0,0,0-1.06h-.6V1.06H62.57Z" transform="translate(-49)" fill="#8f8f91"/>
  <path id="Path_3548" data-name="Path 3548" d="M177,144.881a.53.53,0,0,0,1.06,0c0-1.407.859-2.862,2.3-2.862s2.3,1.455,2.3,2.862a.53.53,0,1,0,1.06,0,4.105,4.105,0,0,0-1.741-3.455,2.509,2.509,0,1,0-3.233,0A4.106,4.106,0,0,0,177,144.881Zm1.908-5.371a1.449,1.449,0,1,1,1.449,1.449A1.451,1.451,0,0,1,178.908,139.509Z" transform="translate(-172.477 -132.159)" fill="#8f8f91"/>
</svg>
