<svg xmlns="http://www.w3.org/2000/svg" width="27.358" height="18.239" viewBox="0 0 27.358 18.239">
  <g id="mail" transform="translate(0 -85.333)">
    <g id="Group_3624" data-name="Group 3624" transform="translate(0 85.333)">
      <path id="Path_3534" data-name="Path 3534" d="M25.955,85.333H1.4a1.407,1.407,0,0,0-1.4,1.4v15.433a1.407,1.407,0,0,0,1.4,1.4H25.955a1.407,1.407,0,0,0,1.4-1.4V86.736A1.407,1.407,0,0,0,25.955,85.333Zm-.526,1.052L14.486,94.593a1.467,1.467,0,0,1-1.614,0L1.929,86.385Zm-5.845,8.749,5.963,7.366c.006.007.013.013.02.02H1.792c.006-.007.014-.012.02-.02l5.963-7.366a.526.526,0,0,0-.818-.662l-5.9,7.294V87.043l11.189,8.392a2.511,2.511,0,0,0,2.876,0l11.189-8.392v14.723l-5.9-7.294a.526.526,0,0,0-.818.662Z" transform="translate(0 -85.333)" fill="#8b8b8b"/>
    </g>
  </g>
</svg>
