<svg xmlns="http://www.w3.org/2000/svg" width="25.076" height="21.501" viewBox="0 0 25.076 21.501">
  <g id="web-house-_2_" data-name="web-house- (2)" transform="translate(0.252 -4.332)">
    <path id="Path_3856" data-name="Path 3856" d="M24.659,14.143a1.588,1.588,0,0,0-.61-1.06L19.512,9.589V6.08a1.6,1.6,0,1,0-3.2,0V7.128L13.311,4.814a1.6,1.6,0,0,0-1.951,0L.622,13.083A1.6,1.6,0,0,0,1.6,15.947a1.58,1.58,0,0,0,.728-.175v8.313a1.6,1.6,0,0,0,1.6,1.6H11.1V18.136h2.46v7.546h7.077a1.6,1.6,0,0,0,1.6-1.6V15.711a1.6,1.6,0,0,0,2.421-1.568Zm-1.489.279a.119.119,0,0,1-.1.047A.115.115,0,0,1,23,14.444l-2.24-1.725V24.085a.121.121,0,0,1-.12.121h-5.6V16.659H9.626v7.547h-5.7a.121.121,0,0,1-.12-.121V12.8L1.671,14.444a.117.117,0,0,1-.073.025.12.12,0,0,1-.1-.047.12.12,0,0,1,.022-.168l10.74-8.269a.1.1,0,0,1,.147,0l5.215,3.6V5.826c0-.067.548.092.548.159v4.228l4.977,4.04a.12.12,0,0,1,.02.168Z" transform="translate(0 0)" fill="#828282" stroke="#fff" stroke-width="0.3"/>
  </g>
</svg>
