<svg id="information" xmlns="http://www.w3.org/2000/svg" width="30.69" height="30.69" viewBox="0 0 30.69 30.69">
  <path id="Path_3886" data-name="Path 3886" d="M11.688,162.816h-.9V161.9a4.5,4.5,0,0,0,1.8-3.578v-1.606a4.64,4.64,0,0,0-3.747-4.627A4.5,4.5,0,0,0,3.6,156.522v1.8a4.5,4.5,0,0,0,1.8,3.578v.918H4.5a4.5,4.5,0,0,0-4.5,4.5v5.395a.9.9,0,0,0,.9.9H15.285a.9.9,0,0,0,.9-.9v-5.395A4.5,4.5,0,0,0,11.688,162.816Z" transform="translate(0 -142.915)" fill="#6e6e6e"/>
  <path id="Path_3887" data-name="Path 3887" d="M250.092,0a8.092,8.092,0,0,0-6.6,12.775l-1.342,2.012a.9.9,0,0,0,.748,1.4h7.193a8.092,8.092,0,1,0,0-16.184Zm0,13.487a.9.9,0,1,1,.9-.9A.9.9,0,0,1,250.092,13.487Zm.9-3.6a.9.9,0,1,1-1.8,0V4.5a.9.9,0,1,1,1.8,0Z" transform="translate(-227.494)" fill="#6e6e6e"/>
</svg>
