<svg xmlns="http://www.w3.org/2000/svg" width="25.76" height="21.704" viewBox="0 0 25.76 21.704">
  <g id="home_3_" data-name="home (3)" transform="translate(0.501 -46.494)">
    <g id="Group_3666" data-name="Group 3666" transform="translate(-0.001 46.994)">
      <path id="Path_3588" data-name="Path 3588" d="M74.544,120.939l-8.83,7.28a.209.209,0,0,1-.008.046.21.21,0,0,0-.008.046v7.371a1,1,0,0,0,.983.983h5.9v-5.9H76.51v5.9h5.9a1,1,0,0,0,.983-.983V128.31a.216.216,0,0,0-.015-.092Z" transform="translate(-62.164 -115.962)" fill="none" stroke="#000" stroke-width="1"/>
      <path id="Path_3589" data-name="Path 3589" d="M24.588,56.592l-3.363-2.8V47.532a.473.473,0,0,0-.491-.491H17.785a.473.473,0,0,0-.491.491v2.995l-3.747-3.133a1.905,1.905,0,0,0-2.334,0L.17,56.592a.446.446,0,0,0-.169.33.5.5,0,0,0,.107.361l.952,1.136a.524.524,0,0,0,.323.169.571.571,0,0,0,.369-.107L12.379,49.62l10.627,8.861a.473.473,0,0,0,.323.107h.046a.524.524,0,0,0,.323-.169l.952-1.136a.5.5,0,0,0,.107-.361A.448.448,0,0,0,24.588,56.592Z" transform="translate(0.001 -46.994)" fill="none" stroke="#000" stroke-width="1"/>
    </g>
  </g>
</svg>
