<svg xmlns="http://www.w3.org/2000/svg" width="16.022" height="19.804" viewBox="0 0 16.022 19.804">
  <g id="place" transform="translate(-48.886)">
    <g id="Group_3611" data-name="Group 3611" transform="translate(48.886)">
      <g id="Group_3610" data-name="Group 3610" transform="translate(0)">
        <path id="Path_2467" data-name="Path 2467" d="M63.47,3.443a8,8,0,0,0-13.147,0,8,8,0,0,0-.931,7.368,6.3,6.3,0,0,0,1.161,1.916L56.37,19.56a.692.692,0,0,0,1.054,0l5.815-6.83A6.3,6.3,0,0,0,64.4,10.816,8,8,0,0,0,63.47,3.443ZM63.1,10.331a4.939,4.939,0,0,1-.913,1.5l0,0L56.9,18.043,51.6,11.827a4.942,4.942,0,0,1-.915-1.5,6.615,6.615,0,0,1,.773-6.1,6.611,6.611,0,0,1,10.868,0A6.616,6.616,0,0,1,63.1,10.331Z" transform="translate(-48.886 0)" fill="#8f8f91"/>
      </g>
    </g>
    <g id="Group_3613" data-name="Group 3613" transform="translate(53.019 4.108)">
      <g id="Group_3612" data-name="Group 3612">
        <path id="Path_2468" data-name="Path 2468" d="M159.632,106.219a3.878,3.878,0,1,0,3.878,3.878A3.882,3.882,0,0,0,159.632,106.219Zm0,6.37a2.493,2.493,0,1,1,2.493-2.493A2.5,2.5,0,0,1,159.632,112.589Z" transform="translate(-155.754 -106.219)" fill="#8f8f91"/>
      </g>
    </g>
  </g>
</svg>
