<svg xmlns="http://www.w3.org/2000/svg" width="22.584" height="15.933" viewBox="0 0 22.584 15.933">
  <g id="sign" transform="translate(0.1 0.1)">
    <g id="Group_1423" data-name="Group 1423" transform="translate(0 0)">
      <g id="Group_1422" data-name="Group 1422">
        <path id="Path_2320" data-name="Path 2320" d="M222.343,182.764c-.34,0-.483.122-.483.41v4.008c-1.919-3.505-2.46-4.484-2.418-4.418-.34,0-.306.131-.306.419v5.542c0,.279-.035.419.306.419s.706.075.681-.184v-3.2c1.824,3.325,1.905,3.386,2.22,3.386.34,0,.507-.14.507-.419v-5.551C222.85,182.886,222.683,182.764,222.343,182.764Z" transform="translate(-209.199 -178.098)" fill="#5a5a5a"/>
        <path id="Path_2321" data-name="Path 2321" d="M114.815,183.951c.262,0,.41-.279.41-.6,0-.279-.122-.585-.41-.585l-2.645.011c-.3,0-.593.14-.593.419v5.542c0,.279.3.419.593.419l2.645-.011c.288,0,.41-.306.41-.585,0-.323-.148-.6-.41-.6h-2.339v-1.484h1.309c.288,0,.41-.279.41-.515,0-.279-.148-.532-.41-.532h-1.309v-1.475Z" transform="translate(-106.256 -178.098)" fill="#5a5a5a"/>
        <path id="Path_2322" data-name="Path 2322" d="M19.148,83.867l3.143-6.617A.874.874,0,0,0,21.5,76H.874A.874.874,0,0,0,0,76.874V90.859a.874.874,0,0,0,.874.874H21.5a.874.874,0,0,0,.789-1.249ZM1.322,90.484V77.249H20.777l-2.79,6.185a.874.874,0,0,0,0,.75l2.79,6.3Z" transform="translate(0 -76)" fill="#5a5a5a" stroke="#5a5a5a" stroke-width="0.2"/>
      </g>
    </g>
  </g>
</svg>
