<svg xmlns="http://www.w3.org/2000/svg" width="18.285" height="18.224" viewBox="0 0 18.285 18.224">
  <g id="multimedia-option" transform="translate(0 -0.85)">
    <g id="Group_1770" data-name="Group 1770" transform="translate(0 0.85)">
      <g id="Group_1769" data-name="Group 1769">
        <path id="Path_2922" data-name="Path 2922" d="M9.112,17.556H2.278a.76.76,0,0,1-.759-.759V3.128a.76.76,0,0,1,.759-.759H9.112a.759.759,0,0,0,0-1.519H2.278A2.281,2.281,0,0,0,0,3.128V16.8a2.281,2.281,0,0,0,2.278,2.278H9.112a.759.759,0,1,0,0-1.519Z" transform="translate(0 -0.85)" fill="#4b4b4b"/>
      </g>
    </g>
    <g id="Group_1772" data-name="Group 1772" transform="translate(6.075 4.647)">
      <g id="Group_1771" data-name="Group 1771">
        <path id="Path_2923" data-name="Path 2923" d="M182.084,111.939l-4.617-4.556a.759.759,0,0,0-1.066,1.081l3.3,3.256h-8.841a.759.759,0,0,0,0,1.519H179.7l-3.3,3.256a.759.759,0,1,0,1.066,1.081l4.617-4.556a.759.759,0,0,0,0-1.081Z" transform="translate(-170.1 -107.165)" fill="#4b4b4b"/>
      </g>
    </g>
  </g>
</svg>
