<svg xmlns="http://www.w3.org/2000/svg" width="22.895" height="25.483" viewBox="0 0 22.895 25.483">
  <g id="office-building" transform="translate(-26)">
    <path id="Path_3590" data-name="Path 3590" d="M48.4,5.973H38.941V.5a.5.5,0,0,0-.5-.5H26.5a.5.5,0,0,0-.5.5V24.985a.5.5,0,0,0,.5.5H48.4a.5.5,0,0,0,.5-.5V6.471A.5.5,0,0,0,48.4,5.973Zm-9.457,1H47.9V19.51H38.941ZM30.977,24.488V20.506h2.986v3.982Zm3.484-4.977H30.479a.5.5,0,0,0-.5.5v4.479H27V1h10.95V24.488H34.959V20.008A.5.5,0,0,0,34.461,19.51Zm4.479,4.977V20.506H47.9v3.982Z" fill="#0474c0"/>
    <path id="Path_3591" data-name="Path 3591" d="M136.5,41.992h1a.5.5,0,0,0,.5-.5v-1a.5.5,0,0,0-.5-.5h-1a.5.5,0,0,0-.5.5v1A.5.5,0,0,0,136.5,41.992Z" transform="translate(-104.524 -38.01)" fill="#0474c0"/>
    <path id="Path_3592" data-name="Path 3592" d="M136.5,111.992h1a.5.5,0,0,0,.5-.5v-1a.5.5,0,0,0-.5-.5h-1a.5.5,0,0,0-.5.5v1A.5.5,0,0,0,136.5,111.992Z" transform="translate(-104.524 -104.526)" fill="#0474c0"/>
    <path id="Path_3593" data-name="Path 3593" d="M136.5,181.992h1a.5.5,0,0,0,.5-.5v-1a.5.5,0,0,0-.5-.5h-1a.5.5,0,0,0-.5.5v1A.5.5,0,0,0,136.5,181.992Z" transform="translate(-104.524 -171.042)" fill="#0474c0"/>
    <path id="Path_3594" data-name="Path 3594" d="M136.5,251.991h1a.5.5,0,0,0,.5-.5v-1a.5.5,0,0,0-.5-.5h-1a.5.5,0,0,0-.5.5v1A.5.5,0,0,0,136.5,251.991Z" transform="translate(-104.524 -237.557)" fill="#0474c0"/>
    <path id="Path_3595" data-name="Path 3595" d="M136.5,321.991h1a.5.5,0,0,0,.5-.5v-1a.5.5,0,0,0-.5-.5h-1a.5.5,0,0,0-.5.5v1A.5.5,0,0,0,136.5,321.991Z" transform="translate(-104.524 -304.073)" fill="#0474c0"/>
    <path id="Path_3596" data-name="Path 3596" d="M66.5,41.992h1a.5.5,0,0,0,.5-.5v-1a.5.5,0,0,0-.5-.5h-1a.5.5,0,0,0-.5.5v1A.5.5,0,0,0,66.5,41.992Z" transform="translate(-38.01 -38.01)" fill="#0474c0"/>
    <path id="Path_3597" data-name="Path 3597" d="M66.5,111.992h1a.5.5,0,0,0,.5-.5v-1a.5.5,0,0,0-.5-.5h-1a.5.5,0,0,0-.5.5v1A.5.5,0,0,0,66.5,111.992Z" transform="translate(-38.01 -104.526)" fill="#0474c0"/>
    <path id="Path_3598" data-name="Path 3598" d="M66.5,181.992h1a.5.5,0,0,0,.5-.5v-1a.5.5,0,0,0-.5-.5h-1a.5.5,0,0,0-.5.5v1A.5.5,0,0,0,66.5,181.992Z" transform="translate(-38.01 -171.042)" fill="#0474c0"/>
    <path id="Path_3599" data-name="Path 3599" d="M66.5,251.991h1a.5.5,0,0,0,.5-.5v-1a.5.5,0,0,0-.5-.5h-1a.5.5,0,0,0-.5.5v1A.5.5,0,0,0,66.5,251.991Z" transform="translate(-38.01 -237.557)" fill="#0474c0"/>
    <path id="Path_3600" data-name="Path 3600" d="M66.5,321.991h1a.5.5,0,0,0,.5-.5v-1a.5.5,0,0,0-.5-.5h-1a.5.5,0,0,0-.5.5v1A.5.5,0,0,0,66.5,321.991Z" transform="translate(-38.01 -304.073)" fill="#0474c0"/>
    <path id="Path_3601" data-name="Path 3601" d="M207.494,40h-1a.5.5,0,0,0-.5.5v1a.5.5,0,0,0,.5.5h1a.5.5,0,0,0,.5-.5v-1A.5.5,0,0,0,207.494,40Z" transform="translate(-171.042 -38.01)" fill="#0474c0"/>
    <path id="Path_3602" data-name="Path 3602" d="M207.494,110h-1a.5.5,0,0,0-.5.5v1a.5.5,0,0,0,.5.5h1a.5.5,0,0,0,.5-.5v-1A.5.5,0,0,0,207.494,110Z" transform="translate(-171.042 -104.525)" fill="#0474c0"/>
    <path id="Path_3603" data-name="Path 3603" d="M207.494,180h-1a.5.5,0,0,0-.5.5v1a.5.5,0,0,0,.5.5h1a.5.5,0,0,0,.5-.5v-1A.5.5,0,0,0,207.494,180Z" transform="translate(-171.042 -171.041)" fill="#0474c0"/>
    <path id="Path_3604" data-name="Path 3604" d="M207.494,250h-1a.5.5,0,0,0-.5.5v1a.5.5,0,0,0,.5.5h1a.5.5,0,0,0,.5-.5v-1A.5.5,0,0,0,207.494,250Z" transform="translate(-171.042 -237.557)" fill="#0474c0"/>
    <g id="Group_3934" data-name="Group 3934">
      <path id="Path_3605" data-name="Path 3605" d="M207.494,320h-1a.5.5,0,0,0-.5.5v1a.5.5,0,0,0,.5.5h1a.5.5,0,0,0,.5-.5v-1A.5.5,0,0,0,207.494,320Z" transform="translate(-171.042 -304.073)" fill="#0474c0"/>
    </g>
    <path id="Path_3606" data-name="Path 3606" d="M392.493,180h-1a.5.5,0,0,0-.5.5v1a.5.5,0,0,0,.5.5h1a.5.5,0,0,0,.5-.5v-1A.5.5,0,0,0,392.493,180Z" transform="translate(-346.833 -171.041)" fill="#0474c0"/>
    <path id="Path_3607" data-name="Path 3607" d="M392.493,250h-1a.5.5,0,0,0-.5.5v1a.5.5,0,0,0,.5.5h1a.5.5,0,0,0,.5-.5v-1A.5.5,0,0,0,392.493,250Z" transform="translate(-346.833 -237.557)" fill="#0474c0"/>
    <path id="Path_3608" data-name="Path 3608" d="M392.493,320h-1a.5.5,0,0,0-.5.5v1a.5.5,0,0,0,.5.5h1a.5.5,0,0,0,.5-.5v-1A.5.5,0,0,0,392.493,320Z" transform="translate(-346.833 -304.073)" fill="#0474c0"/>
    <path id="Path_3609" data-name="Path 3609" d="M322.495,180h-1a.5.5,0,0,0-.5.5v1a.5.5,0,0,0,.5.5h1a.5.5,0,0,0,.5-.5v-1A.5.5,0,0,0,322.495,180Z" transform="translate(-280.319 -171.041)" fill="#0474c0"/>
    <path id="Path_3610" data-name="Path 3610" d="M322.495,250h-1a.5.5,0,0,0-.5.5v1a.5.5,0,0,0,.5.5h1a.5.5,0,0,0,.5-.5v-1A.5.5,0,0,0,322.495,250Z" transform="translate(-280.319 -237.557)" fill="#0474c0"/>
    <path id="Path_3611" data-name="Path 3611" d="M322.495,320h-1a.5.5,0,0,0-.5.5v1a.5.5,0,0,0,.5.5h1a.5.5,0,0,0,.5-.5v-1A.5.5,0,0,0,322.495,320Z" transform="translate(-280.319 -304.073)" fill="#0474c0"/>
  </g>
</svg>
