<svg xmlns="http://www.w3.org/2000/svg" width="27.078" height="26.184" viewBox="0 0 27.078 26.184">
  <g id="Group_3675" data-name="Group 3675" transform="translate(-115.412 -28.366)">
    <path id="Path_3632" data-name="Path 3632" d="M-508.787-1212.548s-1.258-8.282-8.754-8.848c-5.618-.421-9.842,2.789-11.367,8.2a15.433,15.433,0,0,0,0,5.391,35.612,35.612,0,0,1,10.014-3.16,92.376,92.376,0,0,1,9.9-.707,55.592,55.592,0,0,0-6.9-.3c-3.3.083-6.326.6-6.12.3s2.946-.908,6.12-1.116A49.44,49.44,0,0,1-508.787-1212.548Z" transform="translate(649.411 1249.8)" fill="#0474c0"/>
    <path id="Path_3633" data-name="Path 3633" d="M-484.982-1151.418a30.233,30.233,0,0,0-14.69,8.713c.125.063,5.049,5.112,5.049,5.112S-484.766-1145.868-484.982-1151.418Z" transform="translate(625.156 1192.144)" fill="#0474c0"/>
    <g id="Group_3677" data-name="Group 3677" transform="translate(115.412 38.974)">
      <path id="Path_3634" data-name="Path 3634" d="M-534.51-1159.123a43.255,43.255,0,0,0-27.078,6.77c.063-.063,9.59,2.57,9.59,2.57s5.829-5.516,10.468-7.271A35.755,35.755,0,0,1-534.51-1159.123Z" transform="translate(561.588 1159.295)"/>
      <path id="Path_3635" data-name="Path 3635" d="M-519.484-1139.3l-1.2-.77-5.869,2.71,2.282.611Z" transform="translate(532.8 1143.442)" fill="#fff"/>
      <path id="Path_3636" data-name="Path 3636" d="M-480.234-1151.04l-.605-.6-3.987,1.314,1.188.8Z" transform="translate(498.115 1153.011)" fill="#fff"/>
      <path id="Path_3637" data-name="Path 3637" d="M-455.02-1157.175l-2.87.486.643.555,2.736-.731Z" transform="translate(476.073 1157.651)" fill="#fff"/>
    </g>
  </g>
</svg>
