<svg xmlns="http://www.w3.org/2000/svg" width="13.303" height="16.443" viewBox="0 0 13.303 16.443">
  <g id="place" transform="translate(-50.886 -4.36)">
    <g id="Group_3611" data-name="Group 3611" transform="translate(50.886 4.36)">
      <g id="Group_3610" data-name="Group 3610" transform="translate(0)">
        <path id="Path_2467" data-name="Path 2467" d="M61,2.859a6.639,6.639,0,0,0-10.916,0,6.64,6.64,0,0,0-.773,6.118,5.229,5.229,0,0,0,.964,1.591l4.83,5.673a.575.575,0,0,0,.875,0L60.8,10.57a5.235,5.235,0,0,0,.964-1.589A6.642,6.642,0,0,0,61,2.859Zm-.305,5.719a4.1,4.1,0,0,1-.758,1.242l0,0-4.392,5.158L51.143,9.82a4.1,4.1,0,0,1-.76-1.246,5.493,5.493,0,0,1,.642-5.061,5.489,5.489,0,0,1,9.024,0A5.494,5.494,0,0,1,60.691,8.578Z" transform="translate(-48.886 0)" fill="#8f8f91"/>
      </g>
    </g>
  </g>
</svg>
