<svg xmlns="http://www.w3.org/2000/svg" width="20.588" height="20.588" viewBox="0 0 20.588 20.588">
  <g id="discount-tag" transform="translate(0)">
    <path id="Path_3840" data-name="Path 3840" d="M187.8,169.626a1.81,1.81,0,1,0-1.81-1.81A1.812,1.812,0,0,0,187.8,169.626Zm0-2.413a.6.6,0,1,1-.6.6A.6.6,0,0,1,187.8,167.213Z" transform="translate(-178.508 -159.332)" fill="#8f8f8f"/>
    <path id="Path_3841" data-name="Path 3841" d="M345.993,77.813A1.81,1.81,0,1,0,347.8,76,1.812,1.812,0,0,0,345.993,77.813Zm2.413,0a.6.6,0,1,1-.6-.6A.6.6,0,0,1,348.406,77.813Z" transform="translate(-332.081 -72.947)" fill="#8f8f8f"/>
    <path id="Path_3842" data-name="Path 3842" d="M175.8,316.014a1.81,1.81,0,1,0,1.81,1.81A1.812,1.812,0,0,0,175.8,316.014Zm0,2.413a.6.6,0,1,1,.6-.6A.6.6,0,0,1,175.8,318.427Z" transform="translate(-166.99 -303.307)" fill="#8f8f8f"/>
    <path id="Path_3843" data-name="Path 3843" d="M128.724,256.016l-7.238,1.206a.6.6,0,1,0,.2,1.19l7.238-1.206a.6.6,0,0,0-.2-1.19Z" transform="translate(-116.117 -245.714)" fill="#8f8f8f"/>
    <path id="Path_3844" data-name="Path 3844" d="M20.411,3.233,17.355.177A.6.6,0,0,0,16.928,0h-4.7A.6.6,0,0,0,11.8.177L.529,11.468a1.812,1.812,0,0,0,0,2.559l6.032,6.032a1.812,1.812,0,0,0,2.559,0L20.411,8.75a.6.6,0,0,0,.176-.426V3.659a.6.6,0,0,0-.177-.427Zm-1.03,4.842L8.267,19.206a.6.6,0,0,1-.853,0L1.382,13.174a.6.6,0,0,1,0-.854L12.474,1.206h4.2l2.7,2.7V8.074Z" fill="#8f8f8f"/>
  </g>
</svg>
