<svg id="Group_3617" data-name="Group 3617" xmlns="http://www.w3.org/2000/svg" width="12.706" height="12.706" viewBox="0 0 12.706 12.706">
  <g id="Group_3616" data-name="Group 3616">
    <path id="Path_2470" data-name="Path 2470" d="M12.415,11.011,9.1,7.7a4.919,4.919,0,0,0,.824-2.736A4.963,4.963,0,1,0,4.963,9.927,4.919,4.919,0,0,0,7.7,9.1l.916.916h0l2.4,2.4a.993.993,0,1,0,1.4-1.4ZM7.582,8.58h0a4.471,4.471,0,1,1,1-1A4.489,4.489,0,0,1,7.582,8.58ZM8.1,8.8a4.98,4.98,0,0,0,.7-.7l.7.7a6.024,6.024,0,0,1-.7.7Zm3.961,3.26a.5.5,0,0,1-.7,0l-2.2-2.2a6.521,6.521,0,0,0,.7-.7l2.2,2.2a.5.5,0,0,1,0,.7Z" fill="#515151"/>
  </g>
</svg>
