<svg xmlns="http://www.w3.org/2000/svg" width="22.027" height="22.024" viewBox="0 0 22.027 22.024">
  <g id="contract" transform="translate(0 -0.039)">
    <path id="Path_3845" data-name="Path 3845" d="M205.25,96.835a1.1,1.1,0,0,0-2.019-.264l-.184.319a.367.367,0,0,0-.5.132l-.932,1.589-.319-.184a.367.367,0,1,0-.367.635l.319.184-3.12,5.407-.771,2.059-.367.686a1.1,1.1,0,0,0,.059,1.189.916.916,0,0,0,.892.455,1.1,1.1,0,0,0,.958-.543l.367-.613,1.4-1.7,3.153-5.473.319.184a.368.368,0,0,1,.136.5l-1.468,2.544a.364.364,0,1,0,.62.382l1.468-2.544a1.1,1.1,0,0,0-.4-1.5l-.319-.184.918-1.589a.367.367,0,0,0-.132-.5l.184-.319a1.1,1.1,0,0,0,.11-.852Zm-1.384.1a.367.367,0,0,1,.224-.172.385.385,0,0,1,.279.037.367.367,0,0,1,.173.224.385.385,0,0,1-.037.279l-.184.319-.639-.367Zm-5,10.248-.184-.106-.543-.316.521-1.395,1.156.668Zm-1.1,1.061a.367.367,0,0,1-.11-.481l.184-.319.639.367-.184.316a.367.367,0,0,1-.529.117Zm2.47-2.812-1.27-.734,2.936-5.088,1.27.734Zm3.3-5.723-1.27-.734.734-1.27,1.27.734Zm0,0" transform="translate(-183.264 -91.576)" fill="#606060"/>
    <path id="Path_3846" data-name="Path 3846" d="M70.016,356.685l-1.3,1.3-.778-.778a.367.367,0,1,0-.518.521l.778.778a.74.74,0,0,0,1.039,0l1.3-1.3a.367.367,0,0,0-.518-.518Zm0,0" transform="translate(-64.224 -340.198)" fill="#606060"/>
    <path id="Path_3847" data-name="Path 3847" d="M32,315.161a3.12,3.12,0,1,0,6.24,0,.367.367,0,1,0-.734,0,2.386,2.386,0,1,1-.954-1.909.367.367,0,0,0,.441-.587,3.12,3.12,0,0,0-4.992,2.5Zm0,0" transform="translate(-30.532 -297.687)" fill="#606060"/>
    <path id="Path_3848" data-name="Path 3848" d="M81.911,48.773a.367.367,0,0,0,0-.734H72.367a.367.367,0,0,0-.367.367v1.468a.367.367,0,0,0,.367.367h9.544a.367.367,0,0,0,0-.734H72.734v-.734Zm0,0" transform="translate(-68.696 -45.798)" fill="#606060"/>
    <path id="Path_3849" data-name="Path 3849" d="M96.367,112.039a.367.367,0,0,0,0,.734h7.341a.367.367,0,0,0,0-.734Zm0,0" transform="translate(-91.595 -106.861)" fill="#606060"/>
    <path id="Path_3850" data-name="Path 3850" d="M136.442,168.039h-8.075a.367.367,0,1,0,0,.734h8.075a.367.367,0,0,0,0-.734Zm0,0" transform="translate(-122.127 -160.292)" fill="#606060"/>
    <path id="Path_3851" data-name="Path 3851" d="M64.075,216.406a.367.367,0,0,0-.367-.367H56.367a.367.367,0,1,0,0,.734h7.341A.367.367,0,0,0,64.075,216.406Zm0,0" transform="translate(-53.431 -206.089)" fill="#606060"/>
    <path id="Path_3852" data-name="Path 3852" d="M250.936,216.039h-2.569a.367.367,0,0,0,0,.734h2.569a.367.367,0,0,0,0-.734Zm0,0" transform="translate(-236.621 -206.089)" fill="#606060"/>
    <path id="Path_3853" data-name="Path 3853" d="M60.038,256.773a.367.367,0,1,0,0-.734H56.367a.367.367,0,1,0,0,.734Zm0,0" transform="translate(-53.431 -244.254)" fill="#606060"/>
    <path id="Path_3854" data-name="Path 3854" d="M168.367,256.773h2.569a.367.367,0,1,0,0-.734h-2.569a.367.367,0,1,0,0,.734Zm0,0" transform="translate(-160.292 -244.254)" fill="#606060"/>
    <path id="Path_3855" data-name="Path 3855" d="M16.518,16.924a.367.367,0,0,0-.367.367v3.671a.367.367,0,0,1-.367.367H1.1a.367.367,0,0,1-.367-.367V1.14A.367.367,0,0,1,1.1.773H15.784a.367.367,0,0,1,.367.367V8.034a.367.367,0,0,0,.734,0V1.14a1.1,1.1,0,0,0-1.1-1.1H1.1A1.1,1.1,0,0,0,0,1.14V20.961a1.1,1.1,0,0,0,1.1,1.1H15.784a1.1,1.1,0,0,0,1.1-1.1V17.291A.367.367,0,0,0,16.518,16.924Zm0,0" transform="translate(0 0)" fill="#606060"/>
  </g>
</svg>
