<svg id="share" xmlns="http://www.w3.org/2000/svg" width="15.664" height="17.089" viewBox="0 0 15.664 17.089">
  <path id="Path_3549" data-name="Path 3549" d="M319.3,18.314A2.314,2.314,0,1,1,316.982,16,2.314,2.314,0,0,1,319.3,18.314Zm0,0" transform="translate(-304.166 -15.466)" fill="#8f8f91"/>
  <path id="Path_3550" data-name="Path 3550" d="M301.516,5.7a2.848,2.848,0,1,1,2.848-2.848A2.851,2.851,0,0,1,301.516,5.7Zm0-4.628a1.78,1.78,0,1,0,1.78,1.78,1.782,1.782,0,0,0-1.78-1.78Zm0,0" transform="translate(-288.7 0)" fill="#8f8f91"/>
  <path id="Path_3551" data-name="Path 3551" d="M319.3,359.646a2.314,2.314,0,1,1-2.314-2.314A2.314,2.314,0,0,1,319.3,359.646Zm0,0" transform="translate(-304.166 -345.406)" fill="#8f8f91"/>
  <path id="Path_3552" data-name="Path 3552" d="M301.516,347.028a2.848,2.848,0,1,1,2.848-2.848A2.851,2.851,0,0,1,301.516,347.028Zm0-4.628a1.78,1.78,0,1,0,1.78,1.78A1.782,1.782,0,0,0,301.516,342.4Zm0,0" transform="translate(-288.7 -329.94)" fill="#8f8f91"/>
  <path id="Path_3553" data-name="Path 3553" d="M20.628,188.982a2.314,2.314,0,1,1-2.314-2.314A2.314,2.314,0,0,1,20.628,188.982Zm0,0" transform="translate(-15.466 -180.438)" fill="#8f8f91"/>
  <path id="Path_3554" data-name="Path 3554" d="M2.848,176.364A2.848,2.848,0,1,1,5.7,173.516a2.851,2.851,0,0,1-2.848,2.848Zm0-4.628a1.78,1.78,0,1,0,1.78,1.78,1.782,1.782,0,0,0-1.78-1.78Zm0,0" transform="translate(0 -164.972)" fill="#8f8f91"/>
  <path id="Path_3555" data-name="Path 3555" d="M115.061,95.406a.712.712,0,0,1-.353-1.331l6.607-3.767a.712.712,0,1,1,.7,1.238l-6.607,3.767A.707.707,0,0,1,115.061,95.406Zm0,0" transform="translate(-110.532 -87.203)" fill="#8f8f91"/>
  <path id="Path_3556" data-name="Path 3556" d="M121.689,271.41a.707.707,0,0,1-.352-.093l-6.607-3.767a.712.712,0,0,1,.7-1.238l6.607,3.767a.712.712,0,0,1-.353,1.331Zm0,0" transform="translate(-110.554 -257.333)" fill="#8f8f91"/>
</svg>
