<svg xmlns="http://www.w3.org/2000/svg" width="30.479" height="27.433" viewBox="0 0 30.479 27.433">
  <g id="domain" transform="translate(0.205 -0.501)">
    <path id="Path_3535" data-name="Path 3535" d="M29.175,11.761h-.54a13.718,13.718,0,0,0-23.2-7.243,13.616,13.616,0,0,0-3.809,7.3H1.1A1.1,1.1,0,0,0,0,12.92v4a1.1,1.1,0,0,0,1.1,1.1h.858A13.715,13.715,0,0,0,6.2,24.626a.444.444,0,0,0,.579-.674,12.856,12.856,0,0,1-1.463-1.479,17.028,17.028,0,0,1,2.07-.715,14.718,14.718,0,0,0,1.117,1.689,17.31,17.31,0,0,0,3.014,3.079,12.723,12.723,0,0,1-2.6-1.087.444.444,0,0,0-.431.776,13.729,13.729,0,0,0,19.832-8.181h.858a1.1,1.1,0,0,0,1.1-1.1V12.86a1.1,1.1,0,0,0-1.1-1.1Zm-1.444,0H24.643c-.037-.23-.078-.46-.125-.69a15.643,15.643,0,0,0-1.23-3.637l.245-.067a16.925,16.925,0,0,0,1.991-.684,12.689,12.689,0,0,1,2.207,5.078Zm-3.978.059H19.165c-.015-.223-.032-.445-.052-.668-.088-.993-.218-1.955-.385-2.874a28.738,28.738,0,0,0,3.681-.619,14.743,14.743,0,0,1,1.238,3.592c.039.189.073.379.1.569Zm.456-6.674q.392.392.746.812a17.135,17.135,0,0,1-1.666.555c-.139.04-.279.078-.419.115a15.6,15.6,0,0,0-.927-1.465A15.249,15.249,0,0,0,18.81,1.92a12.765,12.765,0,0,1,5.4,3.226Zm-7.7-3.685A14.43,14.43,0,0,1,21.22,5.679q.406.569.753,1.17a28.069,28.069,0,0,1-3.417.555A18.262,18.262,0,0,0,16.288,1.44l.218.021Zm-1.369-.073h.032a15.935,15.935,0,0,1,2.5,6.093q-1.423.1-2.913.082c-.674-.01-1.4-.031-2.146-.076a15.943,15.943,0,0,1,2.5-6.1h.032Zm-1.151.052a18.277,18.277,0,0,0-2.271,5.981A25.47,25.47,0,0,1,8.273,6.9q.36-.626.782-1.219a14.435,14.435,0,0,1,4.713-4.218l.218-.021ZM11.542,8.3c-.166.914-.294,1.869-.382,2.856-.02.222-.036.445-.051.668H6.521c.031-.19.066-.38.105-.569A14.753,14.753,0,0,1,7.841,7.709a25.824,25.824,0,0,0,3.7.588ZM6.066,5.146a12.765,12.765,0,0,1,5.4-3.226A15.238,15.238,0,0,0,8.333,5.163a15.524,15.524,0,0,0-.952,1.511,16.989,16.989,0,0,1-2.063-.713q.355-.42.748-.815ZM4.75,6.684a17.6,17.6,0,0,0,2.216.8,15.648,15.648,0,0,0-1.209,3.592q-.077.374-.135.749H2.532A12.688,12.688,0,0,1,4.75,6.684ZM1.1,17.127a.212.212,0,0,1-.212-.212v-4a.212.212,0,0,1,.212-.212H13.914a.444.444,0,1,0,0-.888H12c.014-.2.029-.393.046-.589.088-.993.218-1.952.386-2.866.81.052,1.586.075,2.309.085q.263,0,.524,0,1.314,0,2.577-.1c.169.916.3,1.877.388,2.873q.026.294.046.589h-1.59a.444.444,0,0,0,0,.888h6.886v4.419H1.1Zm22.366.888a14.127,14.127,0,0,1-1.058,2.76,28.756,28.756,0,0,0-3.673-.619c.127-.694.232-1.41.313-2.141h4.419Zm-5.311,0c-.08.705-.183,1.394-.308,2.062q-1.516-.115-3.105-.093c-.725.01-1.5.033-2.313.086-.124-.666-.227-1.352-.307-2.055ZM4.753,21.75a12.817,12.817,0,0,1-1.87-3.736h3.01a15.048,15.048,0,0,0,1.072,2.942A17.578,17.578,0,0,0,4.753,21.75ZM6.81,18.014h4.417c.08.725.184,1.435.31,2.124a25.823,25.823,0,0,0-3.7.587,14.128,14.128,0,0,1-1.032-2.71Zm6.954,8.957a15.352,15.352,0,0,1-4.553-4.063,13.784,13.784,0,0,1-.926-1.375,25.5,25.5,0,0,1,3.428-.52,22.855,22.855,0,0,0,.623,2.3,17.361,17.361,0,0,0,1.656,3.676c-.076-.007-.152-.015-.229-.023Zm1.373.075H15.1a14.3,14.3,0,0,1-1.926-4.007c-.218-.66-.409-1.36-.572-2.091.751-.046,1.472-.067,2.146-.076q1.489-.021,2.913.082c-.163.729-.353,1.427-.571,2.085a14.293,14.293,0,0,1-1.926,4.007h-.032ZM16.281,27a17.334,17.334,0,0,0,1.657-3.678,22.7,22.7,0,0,0,.62-2.287,28.067,28.067,0,0,1,3.4.552,13.771,13.771,0,0,1-.9,1.326,15.352,15.352,0,0,1-4.558,4.065L16.281,27Zm7.928-3.707a12.761,12.761,0,0,1-5.462,3.245,17.307,17.307,0,0,0,3.022-3.085,14.667,14.667,0,0,0,1.09-1.644q.216.058.429.118a17.2,17.2,0,0,1,1.665.555c-.236.279-.483.551-.744.812Zm1.314-1.537a16.939,16.939,0,0,0-1.99-.683L23.287,21a15.042,15.042,0,0,0,1.089-2.966h3.013a12.687,12.687,0,0,1-1.866,3.716Zm3.864-4.836a.212.212,0,0,1-.212.212H24.459V12.708h4.716a.212.212,0,0,1,.212.212Zm0,0" transform="translate(0 0)" fill="#8b8b8b"/>
    <rect id="Rectangle_1238" data-name="Rectangle 1238" width="30" height="5" rx="1" transform="translate(-0.205 12.28)" fill="none"/>
    <g id="Group_3625" data-name="Group 3625" transform="translate(2.936 13.381)">
      <path id="Path_3536" data-name="Path 3536" d="M50.08,221.723c0,.066-.1.134-.213.134s-.21-.069-.21-.134v-2.2c0-.079.085-.131.21-.131s.213.053.213.131v1.007a.45.45,0,0,1,.413-.249.631.631,0,0,1,.564.666v.777c0,.089-.108.135-.213.135s-.21-.046-.21-.135v-.777a.3.3,0,0,0-.285-.3.279.279,0,0,0-.269.3v.777Zm0,0" transform="translate(-49.656 -219.328)" fill="#8b8b8b"/>
      <path id="Path_3537" data-name="Path 3537" d="M82.372,224.722c0,.128.046.174.184.174h.128a.179.179,0,1,1,0,.358h-.128c-.394,0-.607-.161-.607-.531v-1.591c0-.079.111-.131.21-.131s.213.052.213.131v.564h.387c.069,0,.108.079.108.154s-.039.154-.108.154h-.387v.718Zm0,0" transform="translate(-80.04 -222.724)" fill="#8b8b8b"/>
      <path id="Path_3538" data-name="Path 3538" d="M104.951,224.722c0,.128.046.174.184.174h.128a.179.179,0,1,1,0,.358h-.128c-.394,0-.607-.161-.607-.531v-1.591c0-.079.112-.131.21-.131s.213.052.213.131v.564h.387c.069,0,.108.079.108.154s-.039.154-.108.154h-.387Zm0,0" transform="translate(-100.306 -222.724)" fill="#8b8b8b"/>
      <path id="Path_3539" data-name="Path 3539" d="M127.616,234.577v.1a.516.516,0,0,1,.443-.249.63.63,0,0,1,.587.666v.269a.651.651,0,0,1-.574.673.487.487,0,0,1-.43-.259v.82c0,.069-.1.134-.217.134s-.206-.066-.206-.134v-2.017c0-.079.088-.131.2-.131S127.616,234.5,127.616,234.577Zm.607.515a.308.308,0,0,0-.3-.3.287.287,0,0,0-.282.3v.328a.319.319,0,0,0,.288.243.313.313,0,0,0,.292-.3Zm0,0" transform="translate(-121.211 -233.475)" fill="#8b8b8b"/>
      <path id="Path_3540" data-name="Path 3540" d="M158.612,235.57c0-.288-.777-.108-.777-.656,0-.233.148-.489.587-.489.266,0,.522.092.522.213,0,.059-.056.2-.154.2-.079,0-.18-.1-.361-.1-.164,0-.23.082-.23.148,0,.24.787.076.787.659,0,.292-.216.479-.6.479-.334,0-.594-.138-.594-.282,0-.069.059-.187.141-.187s.167.148.443.148c.193,0,.239-.076.239-.141Zm0,0" transform="translate(-149.439 -233.474)" fill="#8b8b8b"/>
      <path id="Path_3541" data-name="Path 3541" d="M185.693,237.923a.227.227,0,0,1-.22.223.223.223,0,1,1,.22-.223Zm0,.958a.227.227,0,0,1-.22.223.223.223,0,1,1,.22-.223Zm0,0" transform="translate(-174.881 -236.555)" fill="#8b8b8b"/>
      <path id="Path_3542" data-name="Path 3542" d="M200.925,218.487a.127.127,0,0,1-.013.059l-1.178,2.382a.143.143,0,0,1-.128.072.153.153,0,0,1-.158-.144.112.112,0,0,1,.016-.056l1.178-2.391a.128.128,0,0,1,.118-.069.159.159,0,0,1,.164.148Zm0,0" transform="translate(-187.838 -218.34)" fill="#8b8b8b"/>
      <path id="Path_3543" data-name="Path 3543" d="M217.683,218.487a.13.13,0,0,1-.013.059l-1.178,2.382a.142.142,0,0,1-.128.072.153.153,0,0,1-.158-.144.109.109,0,0,1,.016-.056l1.178-2.391a.128.128,0,0,1,.118-.069.159.159,0,0,1,.164.148Zm0,0" transform="translate(-203.297 -218.34)" fill="#8b8b8b"/>
      <path id="Path_3544" data-name="Path 3544" d="M246.045,236.015c-.023.056-.1.076-.167.076s-.154-.026-.174-.076l-.253-.715-.249.712c-.02.052-.1.079-.18.079a.164.164,0,0,1-.164-.079l-.505-1.3a.135.135,0,0,1-.016-.062c0-.1.164-.174.276-.174a.12.12,0,0,1,.121.069l.328.932.246-.81c.023-.075.079-.085.144-.085s.121.01.144.085l.243.813.331-.935a.122.122,0,0,1,.121-.069c.1,0,.272.072.272.177a.12.12,0,0,1-.013.059Zm0,0" transform="translate(-229.082 -233.526)" fill="#8b8b8b"/>
      <path id="Path_3545" data-name="Path 3545" d="M287.819,236.015c-.023.056-.095.076-.167.076s-.154-.026-.174-.076l-.252-.715-.249.712c-.02.052-.1.079-.18.079a.164.164,0,0,1-.164-.079l-.505-1.3a.134.134,0,0,1-.016-.062c0-.1.164-.174.276-.174a.121.121,0,0,1,.122.069l.328.932.246-.81c.023-.075.079-.085.144-.085s.121.01.144.085l.243.813.331-.935a.122.122,0,0,1,.121-.069c.105,0,.272.072.272.177a.121.121,0,0,1-.013.059Zm0,0" transform="translate(-267.706 -233.526)" fill="#8b8b8b"/>
      <path id="Path_3546" data-name="Path 3546" d="M329.6,236.015c-.023.056-.095.076-.167.076s-.154-.026-.174-.076L329,235.3l-.249.712c-.02.052-.1.079-.18.079a.164.164,0,0,1-.164-.079l-.505-1.3a.135.135,0,0,1-.016-.062c0-.1.164-.174.276-.174a.121.121,0,0,1,.122.069l.328.932.246-.81c.023-.075.078-.085.144-.085s.122.01.144.085l.243.813.331-.935a.122.122,0,0,1,.121-.069c.1,0,.272.072.272.177a.12.12,0,0,1-.013.059Zm0,0" transform="translate(-306.087 -233.526)" fill="#8b8b8b"/>
    </g>
  </g>
</svg>
